<?xml version='1.0' encoding='utf-8'?>
<svg xmlns="http://www.w3.org/2000/svg" clip-rule="evenodd" fill-rule="evenodd" image-rendering="optimizeQuality" shape-rendering="geometricPrecision" text-rendering="geometricPrecision" version="1.1" viewBox="0 0 10000 10000">
 <defs>
  <style type="text/css">
    .fil0 {fill:none}
    .fil51 {fill:black}
    .fil76 {fill:#0B0C10}
    .fil11 {fill:#0C0D11}
    .fil77 {fill:#0D0E12}
    .fil56 {fill:#0F1316}
    .fil72 {fill:#121315}
    .fil14 {fill:#151618}
    .fil33 {fill:#156D92}
    .fil15 {fill:#16191A}
    .fil62 {fill:#171216}
    .fil53 {fill:#1A1A1A}
    .fil55 {fill:#1B2728}
    .fil87 {fill:#1B8FBD}
    .fil17 {fill:#1C1B16}
    .fil78 {fill:#1C2023}
    .fil54 {fill:#1D1916}
    .fil30 {fill:#1D9DD1}
    .fil12 {fill:#1E2225}
    .fil66 {fill:#1F1B1A}
    .fil67 {fill:#212121}
    .fil2 {fill:#21262A}
    .fil73 {fill:#22211F}
    .fil19 {fill:#222126}
    .fil65 {fill:#232323}
    .fil63 {fill:#262024}
    .fil75 {fill:#26221F}
    .fil39 {fill:#2BA8DB}
    .fil59 {fill:#2D2D2F}
    .fil74 {fill:#3B3B39}
    .fil10 {fill:#44433E}
    .fil44 {fill:#470C0B}
    .fil32 {fill:#4B6C15}
    .fil52 {fill:#4D4D4D}
    .fil61 {fill:#665F59}
    .fil70 {fill:#666666}
    .fil71 {fill:#6D6C67}
    .fil86 {fill:#779A1F}
    .fil38 {fill:#7BA931}
    .fil8 {fill:#7C7B7D}
    .fil45 {fill:#7E7C6F}
    .fil41 {fill:#83827E}
    .fil29 {fill:#83A62B}
    .fil24 {fill:#8C4461}
    .fil60 {fill:#9C9D8E}
    .fil6 {fill:#A19A89}
    .fil42 {fill:#A1A5A4}
    .fil43 {fill:#A32315}
    .fil49 {fill:#A39A86}
    .fil80 {fill:#A49B88}
    .fil31 {fill:#A68B0C}
    .fil46 {fill:#A82D20}
    .fil9 {fill:#A8A498}
    .fil26 {fill:#AA6315}
    .fil25 {fill:#AB4226}
    .fil5 {fill:#ABA28E}
    .fil64 {fill:#ABAAB0}
    .fil48 {fill:#ADA695}
    .fil81 {fill:#B5B1A7}
    .fil40 {fill:#BDB49B}
    .fil50 {fill:#C2BAA9}
    .fil3 {fill:#D1CABA}
    .fil82 {fill:#D36692}
    .fil1 {fill:#D6D0C1}
    .fil21 {fill:#DF729E}
    .fil85 {fill:#E1C50E}
    .fil47 {fill:#E3DBCC}
    .fil83 {fill:#E44725}
    .fil57 {fill:#E6E6E6}
    .fil84 {fill:#EA8E16}
    .fil34 {fill:#ED83C4}
    .fil28 {fill:#EDD11A}
    .fil22 {fill:#F05331}
    .fil37 {fill:#F0D61A}
    .fil23 {fill:#F69A22}
    .fil35 {fill:#FC6532}
    .fil36 {fill:#FCA720}
    .fil58 {fill:white}
    .fil16 {fill:#2E2D2D;fill-rule:nonzero}
    .fil13 {fill:#333333;fill-rule:nonzero}
    .fil20 {fill:#898681;fill-rule:nonzero}
    .fil27 {fill:#A0A19B;fill-rule:nonzero}
    .fil79 {fill:#D1CABA;fill-rule:nonzero}
    .fil7 {fill:#E3DBCC;fill-rule:nonzero}
    .fil68 {fill:gray;fill-opacity:0.501961}
    .fil69 {fill:#CCCCCC;fill-opacity:0.501961}
    .fil18 {fill:url(#bc)}
    .fil4 {fill:url(#bd)}
  </style>
   <mask id="bj">
  <linearGradient id="bk" x1="6888" x2="6112.6" y1="4208" y2="5047.7" gradientUnits="userSpaceOnUse">
   <stop stop-color="#fff" offset="0"/>
   <stop stop-color="#fff" stop-opacity="0" offset="1"/>
  </linearGradient>
    <rect x="5453" y="3968" width="2095" height="1319" fill="url(#bk)"/>
   </mask>
   <mask id="am">
  <linearGradient id="ax" x1="4448.6" x2="3035.7" y1="3800.4" y2="4836.5" gradientUnits="userSpaceOnUse">
   <stop stop-color="#fff" offset="0"/>
   <stop stop-color="#fff" stop-opacity="0" offset="1"/>
  </linearGradient>
    <rect x="1460" y="2132" width="4565" height="4373" fill="url(#ax)"/>
   </mask>
   <mask id="be">
  <linearGradient id="bf" x1="4734.2" x2="4734.2" y1="4724.4" y2="5113.4" gradientUnits="userSpaceOnUse">
   <stop stop-color="#fff" offset="0"/>
   <stop stop-color="#fff" stop-opacity="0" offset="1"/>
  </linearGradient>
    <rect x="4665" y="4629" width="138" height="579" fill="url(#bf)"/>
   </mask>
   <mask id="bg">
  <linearGradient id="bh" x1="4865.5" x2="4865.5" y1="4724.4" y2="5113.4" gradientUnits="userSpaceOnUse">
   <stop stop-color="#fff" offset="0"/>
   <stop stop-color="#fff" stop-opacity="0" offset="1"/>
  </linearGradient>
    <rect x="4796" y="4629" width="138" height="579" fill="url(#bh)"/>
   </mask>
   <mask id="bi">
  <linearGradient id="bt" x1="4996.7" x2="4996.7" y1="4724.4" y2="5113.4" gradientUnits="userSpaceOnUse">
   <stop stop-color="#fff" offset="0"/>
   <stop stop-color="#fff" stop-opacity="0" offset="1"/>
  </linearGradient>
    <rect x="4928" y="4629" width="138" height="579" fill="url(#bt)"/>
   </mask>
   <mask id="bl">
  <linearGradient id="bm" x1="5128" x2="5128" y1="4724.4" y2="5113.4" gradientUnits="userSpaceOnUse">
   <stop stop-color="#fff" offset="0"/>
   <stop stop-color="#fff" stop-opacity="0" offset="1"/>
  </linearGradient>
    <rect x="5059" y="4629" width="138" height="579" fill="url(#bm)"/>
   </mask>
   <mask id="bn">
  <linearGradient id="bo" x1="5259.2" x2="5259.2" y1="4724.4" y2="5113.4" gradientUnits="userSpaceOnUse">
   <stop stop-color="#fff" offset="0"/>
   <stop stop-color="#fff" stop-opacity="0" offset="1"/>
  </linearGradient>
    <rect x="5190" y="4629" width="138" height="579" fill="url(#bo)"/>
   </mask>
   <mask id="bp">
  <linearGradient id="bq" x1="5390.5" x2="5390.5" y1="4724.4" y2="5113.4" gradientUnits="userSpaceOnUse">
   <stop stop-color="#fff" offset="0"/>
   <stop stop-color="#fff" stop-opacity="0" offset="1"/>
  </linearGradient>
    <rect x="5321" y="4629" width="138" height="579" fill="url(#bq)"/>
   </mask>
   <mask id="br">
  <linearGradient id="bs" x1="2469.3" x2="1615" y1="4616.4" y2="5056.9" gradientUnits="userSpaceOnUse">
   <stop stop-color="#fff" offset="0"/>
   <stop stop-color="#fff" stop-opacity="0" offset="1"/>
  </linearGradient>
    <rect x="1190" y="3857" width="1703" height="1960" fill="url(#bs)"/>
   </mask>
   <mask id="ak">
  <linearGradient id="al" x1="8078.1" x2="7667.1" y1="2478.3" y2="2794.5" gradientUnits="userSpaceOnUse">
   <stop stop-color="#fff" offset="0"/>
   <stop stop-color="#fff" stop-opacity="0" offset="1"/>
  </linearGradient>
    <rect x="7337" y="2074" width="1072" height="1124" fill="url(#al)"/>
   </mask>
   <mask id="an">
  <linearGradient id="ao" x1="7971.6" x2="8079.6" y1="3563.2" y2="3555.7" gradientUnits="userSpaceOnUse">
   <stop stop-color="#fff" offset="0"/>
   <stop stop-color="#fff" stop-opacity="0" offset="1"/>
  </linearGradient>
    <rect x="7693" y="3414" width="665" height="291" fill="url(#ao)"/>
   </mask>
   <mask id="ap">
  <linearGradient id="aq" x1="7573.1" x2="7881.5" y1="2604.1" y2="2922.5" gradientUnits="userSpaceOnUse">
   <stop stop-color="#fff" offset="0"/>
   <stop stop-color="#fff" stop-opacity="0" offset="1"/>
  </linearGradient>
    <rect x="7522" y="2549" width="411" height="428" fill="url(#aq)"/>
   </mask>
   <mask id="ar">
  <radialGradient id="as" cx="7275.7" cy="2518.8" r="0" gradientUnits="userSpaceOnUse">
   <stop stop-color="#fff" stop-opacity="0" offset="0"/>
   <stop stop-color="#fff" stop-opacity="0" offset=".16863"/>
   <stop stop-color="#fff" stop-opacity="0" offset=".3098"/>
   <stop stop-color="#fff" stop-opacity=".18431" offset=".56078"/>
   <stop stop-color="#fff" stop-opacity=".21176" offset=".78039"/>
   <stop stop-color="#fff" stop-opacity=".3098" offset="1"/>
  </radialGradient>
    <rect x="7272" y="2515" width="246" height="246" fill="url(#as)"/>
   </mask>
    <mask id="at">
  <linearGradient id="au" x1="5132.3" x2="5559.8" y1="2959.8" y2="3401.2" gradientUnits="userSpaceOnUse">
   <stop stop-color="#fff" offset="0"/>
   <stop stop-color="#fff" stop-opacity="0" offset="1"/>
  </linearGradient>
     <rect x="5063" y="2885" width="567" height="591" fill="url(#au)"/>
    </mask>
    <mask id="av">
  <linearGradient id="aw" x1="3967.9" x2="4786.2" y1="4694.2" y2="3617.3" gradientUnits="userSpaceOnUse">
   <stop stop-color="#fff" offset="0"/>
   <stop stop-color="#fff" stop-opacity="0" offset="1"/>
  </linearGradient>
     <rect x="3747" y="3663" width="1260" height="985" fill="url(#aw)"/>
    </mask>
    <mask id="ay">
  <linearGradient id="az" x1="7200.2" x2="6951.9" y1="4270.8" y2="4539.9" gradientUnits="userSpaceOnUse">
   <stop stop-color="#fff" stop-opacity=".63137" offset="0"/>
   <stop stop-color="#fff" stop-opacity="0" offset="1"/>
  </linearGradient>
     <rect x="6849" y="4163" width="455" height="484" fill="url(#az)"/>
    </mask>
   <mask id="ba">
  <linearGradient id="bb" x1="5062.3" x2="5062.3" y1="6493.8" y2="6246.9" gradientUnits="userSpaceOnUse">
   <stop stop-color="#fff" offset="0"/>
   <stop stop-color="#fff" stop-opacity="0" offset="1"/>
  </linearGradient>
    <rect x="4665" y="6236" width="794" height="270" fill="url(#bb)"/>
   </mask>
  <linearGradient id="bc" x1="5062.3" x2="5062.3" y1="6102.4" y2="6239" gradientUnits="userSpaceOnUse">
   <stop stop-color="#D1CABA" offset="0"/>
   <stop stop-color="#A8A498" offset="1"/>
  </linearGradient>
  <linearGradient id="bd" x1="5062.3" x2="5062.3" y1="4916.8" y2="5333.4" gradientUnits="userSpaceOnUse">
   <stop stop-color="#D1CABA" offset="0"/>
   <stop stop-color="#D1CABA" offset=".56863"/>
   <stop stop-color="#B0A590" offset=".76863"/>
   <stop stop-color="#D1CABA" offset="1"/>
  </linearGradient>
 </defs>
  <polygon class="fil0" points="0 0 1e4 0 1e4 1e4 0 1e4"/>
  <path class="fil1" d="m1171 6618l-29-445c-4-45-3-92 8-144 65-321 114-562 155-722 33-124 44-221 42-295-22-963 23-1879 60-2750 10-242 197-425 431-425h1687l90-140c13-21 37-35 64-35h2767c27 0 50 14 64 35l90 140h1686c235 0 421 183 432 425 37 871 82 1787 60 2750-2 74 9 171 41 295 42 160 90 401 156 722 10 52 11 99 8 144l-30 445h-7782z"/>
  <path class="fil2" d="m5062 1662v130c232-1 739 5 1520 18l-72-113c-14-21-37-35-64-35h-1384z"/>
  <path class="fil2" d="m5062 1662v130c-232-1-738 5-1519 18l72-113c13-21 37-35 64-35h1383z"/>
  <path class="fil3" d="m5062 6502h-3793v-226c-12-86-9-150 8-192l255-1032-8-2870c-1-119 97-216 216-216 1061-43 2162-60 3322-53 1161-7 2261 10 3323 53 119 0 216 97 216 216l-8 2870 255 1032c17 42 19 106 8 192v226h-3794z"/>
  <path class="fil4" d="m1299 5333c2-9 4-18 6-26 33-124 44-221 42-295-1-32-1-64-2-95h7435c-1 31-2 63-2 95-2 74 9 171 41 295 3 8 5 17 7 26h-7527z"/>
  <polygon class="fil5" points="7277 4872 7545 4726 6977 3972 5456 5075 6594 5284" mask="url(#bj)"/>
  <path class="fil6" d="m3319 6502h-1194l-177-231h1672l-301 231zm-1856-1202l69-248-2-737 2732-2180 1759 2298-1156 900-3402-33z" mask="url(#am)"/>
  <path class="fil7" d="m5062 6509h-3800v-233c-6-43-8-81-7-113 2-33 7-60 15-81l255-1031-8-2869v-1c0-61 25-116 65-157 41-40 96-65 157-65h1c530-22 1071-37 1624-45 553-9 1118-12 1698-8 581-4 1146-1 1699 8 553 8 1093 23 1624 45 61 0 117 25 157 65 41 41 66 96 66 157v1l-8 2869 254 1031c9 21 14 48 15 81 2 32 0 70-6 113v233h-3801zm-3786-14h7573v-220c6-43 8-80 7-111-2-31-7-57-15-77v-1l-255-1033v-1l8-2870v-1c0-57-24-109-61-147-38-38-90-61-148-62h-1c-530-21-1071-36-1623-45-553-8-1119-11-1699-7-580-4-1145-1-1698 7-553 9-1093 24-1624 45h-1c-57 1-109 24-147 62s-61 90-61 147v1l8 2870v1l-255 1033-1 1c-8 20-13 46-14 77s1 68 7 111v220z"/>
  <path class="fil8" d="m1884 2937h1448c58 0 105 47 105 105v467c0 58-47 105-105 105h-1448c-58 0-105-47-105-105v-467c0-58 47-105 105-105z"/>
  <polygon class="fil9" points="1171 6618 1142 6179 5062 6179 8983 6179 8953 6618 5062 6618"/>
  <polygon class="fil10" points="1171 6618 1164 6502 5062 6502 8961 6502 8953 6618 5062 6618"/>
  <path class="fil11" d="m5062 8534l-3420-27c-216-2-349-86-362-267l-109-1622h7782l-109 1622c-12 181-146 265-361 267l-3421 27z"/>
  <path class="fil12" d="m1546 6799h7033c60 0 110 49 110 110v447c0 60-50 110-110 110h-7033c-61 0-110-50-110-110v-447c0-61 49-110 110-110z"/>
  <path class="fil13" d="m1546 6794h7033c31 0 60 13 81 34 20 21 33 49 33 81v447c0 31-13 60-33 81-21 20-50 33-81 33h-7033c-32 0-60-13-81-33-21-21-34-50-34-81v-447c0-32 13-60 34-81s49-34 81-34zm3516 10h-3516c-29 0-55 11-74 30-20 20-31 46-31 75v447c0 29 11 55 31 74 19 19 45 31 74 31h7033c29 0 55-12 74-31s31-45 31-74v-447c0-29-12-55-31-75-19-19-45-30-74-30h-3517z"/>
  <path class="fil0" d="m1546 6799h3516v71h-3619c16-41 56-71 103-71z"/>
  <path class="fil0" d="m8579 6799h-3517v71h3620c-16-41-56-71-103-71z"/>
  <path class="fil14" d="m5062 7466h-3593c-18 0-33 15-33 33v17c0 18 15 33 33 33h7186c19 0 34-15 34-33v-17c0-18-15-33-34-33h-3593z"/>
  <path class="fil15" d="m1480 7549h7164c25 0 45 20 45 44v578h-7253v-578c0-24 20-44 44-44z"/>
  <path class="fil16" d="m1480 7544h7164c14 0 26 6 35 15s14 21 14 34v583h-7262v-583c0-13 6-25 15-34s21-15 34-15zm1902 10h-1902c-11 0-20 4-28 11-7 7-11 17-11 28v573h7243v-573c0-11-4-21-12-28-7-7-17-11-28-11h-5262z"/>
  <path class="fil17" d="m8728 2506s17 0 50 1c5-68-14-116-56-144 2 48 4 95 6 143zm-7331 0c-1 0-17 0-50 1-5-68 13-116 56-144-2 48-4 95-6 143z"/>
  <path class="fil18" d="m5062 6239h-3916l-4-66c-2-23-3-46-1-71h7843c1 25 1 48-1 71l-4 66h-3917z"/>
  <path class="fil19" d="m1870 2911h1447c58 0 106 47 106 105v467c0 58-48 105-106 105h-1447c-58 0-106-47-106-105v-467c0-58 48-105 106-105z"/>
  <path class="fil20" d="m2174 3201c0-47-28-93-102-93-88 0-134 56-134 143 0 47 27 94 102 94 88 0 134-57 134-144zm-63 5c0 38-20 93-67 93-32 0-43-24-43-53 0-38 20-93 67-93 32 0 43 24 43 53zm51 135h59l16-79c5-25 19-47 44-47 17-1 23 9 23 20 0 8-2 17-4 25l-16 81h61l16-80c3-18 4-25 4-36 0-34-18-59-53-59-31 0-49 12-66 31l4-27h-55c-1 15-4 29-7 44l-26 127zm366-48c-16 8-38 12-54 12-36 0-45-14-46-33h122c2-10 4-25 4-32 0-52-34-74-79-74-76 0-102 61-102 100 0 43 31 79 88 79 17 0 39-4 59-10l8-42zm-96-54c4-17 18-34 44-34 21 0 29 15 29 34h-73zm318-121c-16-8-42-10-71-10-50 0-102 17-102 76 0 65 89 51 89 88 0 24-30 27-49 27-20 0-44-5-56-13l-15 47c20 6 48 12 71 12 53 0 112-17 112-80 0-70-89-58-89-90 0-19 20-22 44-22 23 0 39 5 51 10l15-45zm-12 93h32l-11 48c-4 18-5 26-5 35 0 36 24 51 54 51 12 0 25-2 37-4l7-39c-7 2-13 5-19 5-12 0-20-7-20-19 0-8 3-17 5-29l10-48h43l8-41h-41l12-54-63 17-8 37h-34l-7 41zm289 82c-17 8-38 12-54 12-36 0-45-14-46-33h121c3-10 5-25 5-32 0-52-34-74-79-74-76 0-103 61-103 100 0 43 31 79 88 79 17 0 39-4 60-10l8-42zm-96-54c4-17 18-34 43-34 22 0 29 15 29 34h-72zm96 171h60l22-98c12 21 29 33 55 33 62 0 90-53 90-109 0-38-22-70-64-70-21 0-43 9-61 31h-1l5-27h-55c0 6-1 15-3 25l-48 215zm93-146c0-22 17-53 45-53 18 0 28 14 28 35 0 27-17 53-45 53-20 0-28-17-28-35z"/>
  <polygon class="fil21" points="4669 4633 4800 4633 4800 6502 4669 6502"/>
  <polygon class="fil22" points="4800 4633 4931 4633 4931 6502 4800 6502"/>
  <polygon class="fil23" points="4931 4633 5062 4633 5062 6502 4931 6502"/>
  <polygon class="fil24" points="4669 5205 4800 5205 4800 4633 4669 4633" mask="url(#be)"/>
  <polygon class="fil25" points="4800 5205 4931 5205 4931 4633 4800 4633" mask="url(#bg)"/>
  <polygon class="fil26" points="4931 5205 5062 5205 5062 4633 4931 4633" mask="url(#bi)"/>
  <path class="fil27" d="m3292 7189h-36v55c0 8-2 14-5 18-4 4-9 6-14 6-6 0-11-2-15-6-3-4-5-10-5-18v-150c0-8 2-14 6-18s10-6 19-6h50c15 0 27 1 35 4 8 2 15 6 21 11 5 5 10 11 13 19 3 7 4 15 4 25 0 19-6 34-18 45-12 10-30 15-55 15zm-9-89h-27v59h27c9 0 17-1 23-3s11-5 14-9c4-5 5-10 5-18s-2-15-7-20c-6-6-17-9-35-9zm201-33c20 0 37 4 52 12 14 8 25 20 33 35 7 15 11 33 11 53 0 15-2 29-6 41-4 13-11 23-19 32s-18 16-30 21-25 7-40 7c-16 0-29-2-41-7s-22-12-30-21-14-20-19-32c-4-13-6-26-6-41s2-29 7-41c4-13 10-23 18-32s18-15 30-20 25-7 40-7zm56 100c0-14-3-27-7-37-5-10-11-18-20-24-8-5-18-8-29-8-8 0-15 2-22 5s-12 7-17 13c-5 5-9 13-12 21-2 9-4 19-4 30s2 21 4 30c3 9 7 16 12 22s11 11 18 13c6 3 13 5 21 5 10 0 20-3 28-8 9-5 15-13 20-23 5-11 8-24 8-39zm112-76v141h80c6 0 11 2 15 5 3 3 5 7 5 12s-2 8-5 11c-4 3-9 5-15 5h-95c-9 0-15-2-19-6s-5-10-5-18v-150c0-8 1-14 5-18s8-6 14-6 11 2 14 6c4 4 6 10 6 18zm246 152l-9-25h-79l-9 25c-4 10-7 17-9 20-3 3-7 5-13 5-5 0-9-2-13-5-4-4-6-8-6-13 0-2 1-5 1-8 1-3 3-7 5-12l50-126c1-4 3-8 5-13s4-9 6-13c2-3 5-6 9-8s8-3 14-3c5 0 10 1 13 3 4 2 7 5 9 8s4 7 6 11c1 3 3 8 6 15l51 125c4 10 6 17 6 21 0 5-2 9-6 12-4 4-8 6-14 6-3 0-5 0-8-2-2-1-4-2-5-4-2-2-3-5-5-9s-3-7-5-10zm-78-54h59l-30-80-29 80zm202-7h-13v62c0 8-2 14-6 18s-8 6-14 6-11-2-15-6c-3-4-5-10-5-18v-150c0-8 2-14 6-18s10-6 18-6h64c9 0 17 1 23 1 6 1 12 3 17 5 6 3 12 6 16 11 5 5 8 10 11 17 2 6 4 13 4 20 0 14-5 26-13 35-8 8-20 14-37 18 7 4 14 9 20 16 6 8 12 15 17 24 5 8 9 15 12 22 3 6 4 11 4 13 0 3-1 5-2 8-2 2-4 4-7 6-3 1-6 2-10 2s-8-1-11-3-6-5-8-8-5-8-9-14l-16-26c-5-10-10-17-15-22-4-5-9-9-13-11-5-1-11-2-18-2zm23-82h-36v53h35c9 0 17 0 24-2 6-2 11-4 14-8 4-4 6-10 6-17 0-5-2-10-5-14-2-4-6-7-11-9s-14-3-27-3zm205-33c21 0 38 4 52 12 15 8 26 20 33 35 8 15 11 33 11 53 0 15-2 29-6 41-4 13-10 23-18 32s-18 16-30 21-25 7-41 7c-15 0-29-2-41-7s-22-12-30-21-14-20-18-32c-4-13-6-26-6-41s2-29 6-41c5-13 11-23 19-32s18-15 30-20c11-5 25-7 39-7zm56 100c0-14-2-27-6-37-5-10-12-18-20-24-9-5-19-8-30-8-7 0-15 2-21 5-7 3-13 7-18 13-4 5-8 13-11 21-3 9-4 19-4 30s1 21 4 30 7 16 12 22 11 11 17 13c7 3 14 5 22 5 10 0 19-3 28-8 8-5 15-13 20-23 5-11 7-24 7-39zm76 77v-153c0-8 1-14 5-18s8-6 14-6 11 2 15 6c3 4 5 10 5 18v153c0 8-2 14-5 18-4 4-9 6-15 6-5 0-10-2-14-6-3-4-5-10-5-18zm108-174h51c13 0 25 1 34 4 10 2 18 7 26 14 21 17 31 44 31 79 0 12-1 22-3 32s-6 18-10 26-9 15-16 21c-5 5-11 8-17 11s-13 5-20 6-15 2-24 2h-52c-7 0-12-1-16-3-4-3-6-6-7-10s-2-9-2-15v-143c0-8 2-14 6-18s10-6 19-6zm15 31v133h30c6 0 11-1 15-1s8-1 12-3c4-1 7-3 10-6 13-11 20-30 20-57 0-19-3-34-9-43-6-10-13-16-21-19-9-2-19-4-31-4h-26zm268-10v141h80c6 0 11 2 14 5 4 3 5 7 5 12s-1 8-5 11c-3 3-8 5-14 5h-96c-8 0-14-2-18-6s-6-10-6-18v-150c0-8 2-14 6-18 3-4 8-6 14-6s11 2 14 6c4 4 6 10 6 18zm246 152l-9-25h-79l-9 25c-4 10-7 17-10 20-2 3-6 5-12 5-5 0-10-2-13-5-4-4-6-8-6-13 0-2 0-5 1-8s3-7 5-12l49-126c2-4 3-8 5-13s5-9 7-13c2-3 5-6 9-8 3-2 8-3 13-3 6 0 10 1 14 3s7 5 9 8 4 7 6 11c1 3 3 8 6 15l50 125c4 10 6 17 6 21 0 5-2 9-5 12-4 4-9 6-14 6-3 0-6 0-8-2-2-1-4-2-5-4-2-2-4-5-5-9-2-4-4-7-5-10zm-78-54h58l-29-80-29 80zm201-98l75 114v-115c0-8 2-14 5-17 3-4 8-6 13-6 6 0 10 2 14 6 3 3 4 9 4 17v152c0 18-7 26-21 26-3 0-6 0-9-1s-6-3-8-5c-3-2-5-5-7-8l-6-9-74-113v114c0 7-2 13-6 16-3 4-7 6-13 6-5 0-10-2-13-6-4-4-5-9-5-16v-150c0-7 0-12 2-15 1-4 4-8 8-10 4-3 8-4 13-4 3 0 6 1 9 2 2 1 5 2 7 4 1 2 3 5 5 8s4 6 7 10zm179-21h51c14 0 25 1 35 4 9 2 18 7 26 14 20 17 30 44 30 79 0 12-1 22-3 32s-5 18-9 26c-5 8-10 15-17 21-5 5-11 8-17 11s-13 5-20 6-15 2-24 2h-51c-7 0-13-1-16-3-4-3-6-6-7-10-2-4-2-9-2-15v-143c0-8 2-14 6-18 3-4 10-6 18-6zm15 31v133h30c7 0 12-1 16-1 3 0 7-1 11-3 4-1 8-3 10-6 14-11 20-30 20-57 0-19-3-34-8-43-6-10-13-16-22-19-8-2-19-4-31-4h-26zm396 102c0 7-2 13-5 20-3 8-8 15-14 22-7 7-15 12-26 17-10 4-22 6-35 6-10 0-20-1-28-3s-16-5-23-9-13-9-19-16c-5-6-9-13-13-21-4-7-6-15-8-24-2-8-3-18-3-27 0-16 2-30 7-42 4-13 11-23 19-32 9-9 19-16 30-20 12-5 24-7 37-7 16 0 30 3 42 9 12 7 22 14 28 24 7 9 10 18 10 26 0 4-2 8-5 12-3 3-7 5-11 5-5 0-9-1-12-4-2-2-5-6-8-12-5-10-11-17-18-22-7-4-16-7-26-7-16 0-29 6-39 19-9 12-14 29-14 52 0 15 2 28 6 38 5 10 11 17 18 22 8 5 17 8 28 8s21-3 29-9c7-5 13-13 17-24 2-6 4-10 6-13 3-3 7-5 12-5s9 2 12 5c4 3 6 7 6 12zm159 40l-9-25h-79l-9 25c-4 10-7 17-10 20-2 3-6 5-12 5-5 0-10-2-13-5-4-4-6-8-6-13 0-2 0-5 1-8s3-7 5-12l49-126c2-4 4-8 6-13s4-9 6-13c2-3 5-6 9-8 3-2 8-3 13-3 6 0 10 1 14 3s7 5 9 8 4 7 6 11c1 3 3 8 6 15l50 125c4 10 6 17 6 21 0 5-1 9-5 12-4 4-9 6-14 6-3 0-6 0-8-2-2-1-4-2-5-4-2-2-3-5-5-9s-3-7-5-10zm-78-54h58l-29-80-29 80zm215 46l-31-123v134c0 7-2 13-5 16-4 4-8 6-13 6-6 0-10-2-13-5-4-4-5-10-5-17v-154c0-9 2-14 6-17 5-3 11-5 18-5h12c8 0 13 1 16 2 4 2 6 4 8 7 1 4 3 9 5 17l28 107 29-107c2-8 3-13 5-17 2-3 4-5 7-7 4-1 9-2 16-2h13c7 0 13 2 18 5 4 3 6 8 6 17v154c0 7-2 13-5 16-3 4-8 6-13 6s-10-2-13-6c-3-3-5-9-5-16v-134l-31 123c-2 8-4 14-5 18s-4 7-7 10c-4 4-9 5-15 5-4 0-8-1-11-3s-6-4-8-8c-2-3-3-6-4-10l-3-12zm289-134h-89v47h82c6 0 10 2 13 5 3 2 5 6 5 10 0 5-2 8-5 11s-7 4-13 4h-82v56h92c6 0 11 1 14 4s5 7 5 11c0 5-2 9-5 11-3 3-8 5-14 5h-107c-9 0-15-2-19-6-3-4-5-10-5-18v-147c0-5 0-10 2-13 2-4 4-7 8-8 4-2 8-3 14-3h104c6 0 11 2 14 4 3 3 4 7 4 11 0 5-1 9-4 12-3 2-8 4-14 4zm106 81h-14v62c0 8-2 14-5 18-4 4-9 6-15 6s-11-2-14-6c-4-4-5-10-5-18v-150c0-8 1-14 5-18s10-6 19-6h64c9 0 16 1 23 1 6 1 11 3 16 5 7 3 12 6 17 11 4 5 8 10 10 17 3 6 4 13 4 20 0 14-4 26-12 35-8 8-21 14-37 18 6 4 13 9 20 16 6 8 12 15 17 24 5 8 8 15 11 22 3 6 4 11 4 13 0 3 0 5-2 8-2 2-4 4-7 6-2 1-6 2-10 2s-8-1-11-3-5-5-7-8c-3-3-6-8-9-14l-16-26c-6-10-11-17-15-22-5-5-9-9-14-11-4-1-10-2-17-2zm22-82h-36v53h35c10 0 18 0 24-2 7-2 12-4 15-8s5-10 5-17c0-5-1-10-4-14s-7-7-11-9c-5-2-14-3-28-3zm245 143l-9-25h-80l-9 25c-3 10-7 17-9 20-3 3-7 5-13 5-5 0-9-2-13-5-4-4-6-8-6-13 0-2 1-5 2-8s2-7 4-12l50-126c1-4 3-8 5-13s4-9 6-13c3-3 6-6 9-8 4-2 8-3 14-3 5 0 10 1 14 3 3 2 6 5 8 8 3 3 5 7 6 11 2 3 4 8 6 15l51 125c4 10 6 17 6 21 0 5-2 9-6 12-4 4-8 6-13 6-3 0-6 0-8-2-3-1-4-2-6-4-1-2-3-5-5-9-1-4-3-7-4-10zm-78-54h58l-29-80-29 80z"/>
  <polygon class="fil28" points="5062 4633 5194 4633 5194 6502 5062 6502"/>
  <polygon class="fil29" points="5194 4633 5325 4633 5325 6502 5194 6502"/>
  <polygon class="fil30" points="5325 4633 5456 4633 5456 6502 5325 6502"/>
  <polygon class="fil31" points="5062 5205 5194 5205 5194 4633 5062 4633" mask="url(#bl)"/>
  <polygon class="fil32" points="5194 5205 5325 5205 5325 4633 5194 4633" mask="url(#bn)"/>
  <polygon class="fil33" points="5325 5205 5456 5205 5456 4633 5325 4633" mask="url(#bp)"/>
   <polygon class="fil34" points="4800 6502 4800 6102 4669 6102 4669 6502"/>
   <polygon class="fil35" points="4931 6102 4931 6502 4800 6502 4800 6102"/>
   <polygon class="fil36" points="5062 6502 5062 6102 4931 6102 4931 6502"/>
   <polygon class="fil37" points="5194 6502 5194 6102 5062 6102 5062 6502"/>
   <polygon class="fil38" points="5325 6102 5325 6502 5194 6502 5194 6102"/>
   <polygon class="fil39" points="5456 6502 5456 6102 5325 6102 5325 6502"/>
  <path class="fil40" d="m1194 5813c44-215 80-385 111-506 33-124 44-221 42-295-5-199-6-395-6-590l987-562 562 987-1696 966z" mask="url(#br)"/>
  <path class="fil41" d="m2598 3788c299 0 541 243 541 542s-242 542-541 542-542-243-542-542 243-542 542-542z"/>
  <path class="fil42" d="m2598 3836c291 0 529 230 541 518v-24c0-299-242-542-541-542s-542 243-542 542c0 8 0 16 1 24 12-288 250-518 541-518z"/>
  <path class="fil43" d="m2598 3994c226 0 410 184 410 411 0 226-184 410-410 410-227 0-411-184-411-410 0-227 184-411 411-411z"/>
  <path class="fil44" d="m2598 3994c226 0 410 184 410 411 0 226-184 410-410 410-227 0-411-184-411-410 0-227 184-411 411-411zm448 372c0-248-200-448-448-448s-449 200-449 448 201 449 449 449 448-201 448-449z"/>
  <path class="fil45" d="m3139 4361c-16 285-252 511-541 511s-525-226-541-511c-1 10-1 20-1 30 0 299 243 542 542 542s541-243 541-542v-30z"/>
  <path class="fil46" d="m2598 3967c233 0 421 185 421 413s-188 413-421 413-422-185-422-413 189-413 422-413z"/>
  <path class="fil47" d="m6865 2078h1414c69 0 126 57 126 126v1371c0 70-57 126-126 126h-1414c-70 0-127-56-127-126v-1371c0-69 57-126 127-126z"/>
  <path class="fil48" d="m6865 2078h1414c69 0 126 57 126 126v1371c0 70-57 126-126 126h-191l-392-75 392-139v-1247h-1066v605h-165l-22-275-97-330v-36c0-69 57-126 127-126z"/>
  <path class="fil49" d="m7340 2078h939c69 0 126 57 126 126v991l-317-332v-623h-594l-154-162z" mask="url(#ak)"/>
  <path class="fil50" d="m8355 3676c-21 16-48 25-76 25h-191l-392-75 392-139v-38l136-32 131 259z" mask="url(#an)"/>
  <path class="fil51" d="m8229 2151c63 0 115 52 115 115v1215c0 63-52 114-115 114h-1l1 2c-438 40-876 40-1315 0l1-2h-1c-63 0-115-51-115-114v-1215c0-63 52-115 115-115 439-40 877-40 1315 0z"/>
  <path class="fil52" d="m7572 2165c333 0 619 184 740 446v557c-121 262-407 447-740 447-334 0-620-185-741-447v-557c121-262 407-446 741-446z"/>
  <path class="fil53" d="m7572 2165c301 0 560 184 669 446v557c-109 262-368 447-669 447-302 0-560-185-670-447v-557c110-262 368-446 670-446z"/>
  <path class="fil54" d="m7162 2403h820c40 0 73 33 73 73v796c0 40-33 73-73 73h-820c-41 0-74-33-74-73v-796c0-40 33-73 74-73z"/>
  <path class="fil55" d="m7953 2446c37 0 67 29 67 66v705c0 36-30 66-67 66v1c-254 24-508 24-763 0l1-1h-1c-36 0-66-30-66-66v-705c0-37 30-66 66-66 255-24 509-24 763 0z"/>
  <path class="fil56" d="m7572 2508c210 0 380 170 380 380s-170 381-380 381-381-171-381-381 171-380 381-380z"/>
  <path class="fil57" d="m7929 2896l-214 67c-44 19-94 13-133-15-38-28-60-73-56-121l169-274c49 18 93 46 129 83 65 64 105 154 105 252v8z" mask="url(#ap)"/>
  <path class="fil58" d="m7305 2519h180c17 0 30 13 30 30v180c0 16-13 29-30 29h-180c-16 0-29-13-29-29v-180c0-17 13-30 29-30z" mask="url(#ar)"/>
   <path class="fil59" d="m3612 3345c0 800 650 1450 1450 1450 801 0 1450-650 1450-1450 0-801-649-1450-1450-1450-800 0-1450 649-1450 1450z"/>
   <path class="fil60" d="m6480 3377c0-784-634-1419-1418-1419-783 0-1418 635-1418 1419 0 783 635 1418 1418 1418 784 0 1418-635 1418-1418z"/>
   <path class="fil61" d="m6464 3393c0-774-628-1401-1402-1401s-1401 627-1401 1401 627 1402 1401 1402 1402-628 1402-1402z"/>
   <path class="fil62" d="m6433 3424c0-757-614-1371-1371-1371s-1370 614-1370 1371 613 1371 1370 1371 1371-614 1371-1371z"/>
   <path class="fil63" d="m6405 3452c0-742-601-1344-1343-1344-741 0-1343 602-1343 1344 0 741 602 1343 1343 1343 742 0 1343-602 1343-1343z"/>
   <path class="fil64" d="m6362 3439c0-718-582-1300-1300-1300s-1300 582-1300 1300 582 1300 1300 1300 1300-582 1300-1300z"/>
   <path class="fil65" d="m6283 3435c0-674-546-1221-1221-1221-674 0-1220 547-1220 1221s546 1221 1220 1221c675 0 1221-547 1221-1221z"/>
   <path class="fil66" d="m6283 3435c0-674-546-1221-1221-1221-674 0-1220 547-1220 1221s546 1221 1220 1221c675 0 1221-547 1221-1221z"/>
    <path class="fil53" d="m6201 3435c0-629-510-1139-1139-1139s-1139 510-1139 1139 510 1139 1139 1139 1139-510 1139-1139z"/>
    <path class="fil13" d="m6197 3435c0-313-127-597-333-802-205-205-488-332-802-332-313 0-596 127-802 332-205 205-332 489-332 802s127 597 332 802c206 205 489 332 802 332 314 0 597-127 802-332 206-205 333-489 333-802zm-326-809c207 207 335 493 335 809s-128 602-335 808c-207 207-493 335-809 335-315 0-601-128-808-335-207-206-335-492-335-808s128-602 335-809 493-335 808-335c316 0 602 128 809 335z"/>
    <path class="fil53" d="m6152 3435c0-602-488-1090-1090-1090-601 0-1089 488-1089 1090s488 1089 1089 1089c602 0 1090-487 1090-1089z"/>
    <path class="fil13" d="m6147 3435c0-300-121-571-317-767-197-197-468-318-768-318-299 0-571 121-767 318-196 196-318 467-318 767 0 299 122 571 318 767s468 318 767 318c300 0 571-122 768-318 196-196 317-468 317-767zm-311-774c198 198 321 472 321 774s-123 576-321 774-472 320-774 320-575-122-773-320-321-472-321-774 123-576 321-774 471-320 773-320 576 122 774 320z"/>
    <path class="fil53" d="m6103 3435c0-575-466-1040-1041-1040-574 0-1040 465-1040 1040 0 574 466 1040 1040 1040 575 0 1041-466 1041-1040z"/>
    <path class="fil13" d="m6098 3435c0-286-116-545-303-732-188-188-447-304-733-304s-545 116-732 304c-187 187-303 446-303 732s116 545 303 732c187 188 446 304 732 304s545-116 733-304c187-187 303-446 303-732zm-297-739c189 189 306 450 306 739 0 288-117 550-306 739s-450 306-739 306c-288 0-549-117-739-306-189-189-306-451-306-739 0-289 117-550 306-739 190-189 451-306 739-306 289 0 550 117 739 306z"/>
    <path class="fil53" d="m6053 3435c0-547-443-991-991-991-547 0-991 444-991 991s444 991 991 991c548 0 991-444 991-991z"/>
    <path class="fil13" d="m6049 3435c0-272-111-519-289-698-179-178-425-288-698-288-272 0-519 110-697 288-179 179-289 426-289 698s110 519 289 697c178 179 425 289 697 289 273 0 519-110 698-289 178-178 289-425 289-697zm-283-704c181 180 292 429 292 704s-111 524-292 704c-180 180-429 291-704 291s-523-111-704-291c-180-180-291-429-291-704s111-524 291-704c181-180 429-292 704-292s524 112 704 292z"/>
    <path class="fil53" d="m6004 3435c0-520-422-942-942-942s-941 422-941 942 421 942 941 942 942-422 942-942z"/>
    <path class="fil13" d="m5999 3435c0-259-105-493-274-663-170-169-404-274-663-274-517 0-937 419-937 937 0 517 420 937 937 937 259 0 493-105 663-275 169-169 274-403 274-662zm-268-669c172 171 278 408 278 669s-106 498-278 669c-171 171-407 277-669 277-522 0-946-423-946-946s424-946 946-946c262 0 498 105 669 277z"/>
    <path class="fil53" d="m5955 3435c0-493-400-892-893-892s-892 399-892 892 399 892 892 892 893-399 893-892z"/>
    <path class="fil13" d="m5950 3435c0-245-99-467-260-628s-383-260-628-260-467 99-627 260c-161 161-260 383-260 628s99 467 260 628c160 160 382 260 627 260s467-100 628-260c161-161 260-383 260-628zm-253-634c162 162 262 386 262 634s-100 472-262 634c-163 162-387 263-635 263-247 0-472-101-634-263s-263-386-263-634 101-472 263-634c162-163 387-263 634-263 248 0 472 100 635 263z"/>
    <path class="fil53" d="m5905 3435c0-466-377-843-843-843-465 0-843 377-843 843 0 465 378 843 843 843 466 0 843-378 843-843z"/>
    <path class="fil13" d="m5901 3435c0-232-94-441-246-593s-361-246-593-246c-231 0-441 94-593 246-151 152-245 361-245 593 0 231 94 441 245 593 152 151 362 245 593 245 232 0 441-94 593-245 152-152 246-362 246-593zm-239-600c153 154 248 366 248 600s-95 446-248 599c-154 154-366 249-600 249s-446-95-599-249c-153-153-248-365-248-599s95-446 248-600c153-153 365-248 599-248s446 95 600 248z"/>
    <path class="fil53" d="m5856 3435c0-439-355-794-794-794-438 0-793 355-793 794 0 438 355 794 793 794 439 0 794-356 794-794z"/>
    <path class="fil13" d="m5851 3435c0-218-88-415-231-558-142-143-340-231-558-231s-415 88-558 231c-142 143-231 340-231 558s89 415 231 558c143 143 340 231 558 231s416-88 558-231c143-143 231-340 231-558zm-224-565c144 145 234 344 234 565 0 220-90 420-234 564-145 145-344 234-565 234-220 0-420-89-564-234-145-144-234-344-234-564 0-221 89-420 234-565 144-144 344-234 564-234 221 0 420 90 565 234z"/>
    <path class="fil53" d="m5807 3435c0-411-334-745-745-745s-744 334-744 745 333 744 744 744 745-333 745-744z"/>
    <path class="fil13" d="m5802 3435c0-204-83-389-217-523-133-134-318-217-523-217-204 0-389 83-523 217s-216 319-216 523 82 389 216 523 319 217 523 217c205 0 390-83 523-217 134-134 217-319 217-523zm-210-530c136 136 219 323 219 530s-83 394-219 530c-136 135-323 219-530 219s-394-84-529-219c-136-136-220-323-220-530s84-394 220-530c135-135 322-219 529-219s394 84 530 219z"/>
    <path class="fil53" d="m5757 3435c0-384-311-695-695-695s-695 311-695 695 311 695 695 695 695-311 695-695z"/>
    <path class="fil13" d="m5753 3435c0-191-77-363-202-488s-298-203-489-203c-190 0-363 78-488 203s-202 297-202 488 77 363 202 488 298 202 488 202c191 0 364-77 489-202s202-297 202-488zm-196-495c127 127 205 302 205 495s-78 368-205 495c-126 126-301 205-495 205-193 0-368-79-494-205-127-127-205-302-205-495s78-368 205-495c126-127 301-205 494-205 194 0 369 78 495 205z"/>
    <path class="fil53" d="m5708 3435c0-357-289-646-646-646-356 0-646 289-646 646s290 646 646 646c357 0 646-289 646-646z"/>
    <path class="fil13" d="m5704 3435c0-177-72-337-188-454-116-116-277-187-454-187s-337 71-453 187c-116 117-188 277-188 454s72 337 188 453 276 188 453 188 338-72 454-188 188-276 188-453zm-182-460c118 118 191 280 191 460 0 179-73 342-191 460-117 118-280 190-460 190-179 0-342-72-460-190-117-118-190-281-190-460 0-180 73-342 190-460 118-118 281-191 460-191 180 0 343 73 460 191z"/>
   <path class="fil51" d="m5062 2788c358 0 647 290 647 647s-289 647-647 647c-357 0-647-290-647-647s290-647 647-647z"/>
   <path class="fil67" d="m5062 2859c318 0 576 258 576 576s-258 575-576 575-575-257-575-575 257-576 575-576z"/>
   <path class="fil51" d="m5062 2995c244 0 441 197 441 440s-197 440-441 440c-243 0-440-197-440-440s197-440 440-440z"/>
   <path class="fil58" d="m5626 3364l-297 94c-61 25-131 17-184-21-53-39-83-102-78-168l234-380c68 25 129 64 180 114 89 90 145 214 145 351v10z" mask="url(#at)"/>
   <path class="fil68" d="m4831 2934c97 0 175 78 175 175s-78 176-175 176-176-79-176-176 79-175 176-175z"/>
   <path class="fil69" d="m5358 3679c51 0 93 42 93 93 0 52-42 94-93 94-52 0-94-42-94-94 0-51 42-93 94-93z"/>
   <path class="fil70" d="m3750 3963l785-296c82 185 259 319 469 340l-105 638c-440-59-806-352-968-750l-181 68z" mask="url(#av)"/>
   <path class="fil71" d="m7687 4395c0-265-215-481-481-481s-482 216-482 481c0 266 216 482 482 482s481-216 481-482z"/>
   <path class="fil72" d="m7679 4404c0-262-212-474-473-474-262 0-473 212-473 474 0 261 211 473 473 473 261 0 473-212 473-473z"/>
   <path class="fil73" d="m7662 4421c0-251-204-456-456-456s-456 205-456 456c0 252 204 456 456 456s456-204 456-456z"/>
   <path class="fil74" d="m7630 4452c0-234-190-424-424-424-235 0-425 190-425 424 0 235 190 425 425 425 234 0 424-190 424-425z"/>
   <path class="fil75" d="m7581 4477c0-207-168-375-375-375s-375 168-375 375 168 375 375 375 375-168 375-375z"/>
   <path class="fil76" d="m7569 4489c0-200-163-363-363-363-201 0-363 163-363 363 0 201 162 363 363 363 200 0 363-162 363-363z"/>
   <path class="fil77" d="m7306 4196c-32-34-70-57-111-69-168 5-306 123-343 280 6 57 30 112 73 156 101 105 269 108 374 7 105-102 108-269 7-374z"/>
   <path class="fil78" d="m6831 4477c0 207 168 375 375 375 15 0 30-1 45-3l-191-211c-50-11-97-36-135-75-43-44-67-99-73-156-9 16-21 42-21 70z"/>
   <path class="fil57" d="m7173 4605c-132 0-240-107-240-239 0-83 42-156 106-199-93 48-163 136-187 240 6 57 30 112 73 156 38 39 85 64 135 75 83 18 173-5 239-68 0-1 1-1 1-1-37 23-80 36-127 36z" mask="url(#ay)"/>
  <path class="fil7" d="m7153 3688h117c5 0 9 2 12 5s5 8 5 13v3c0 1-1 2-1 3l-58 173c-2 4-5 8-9 10s-9 2-13 0c-2-1-5-2-6-4-2-2-3-4-4-6l-59-173c-1-5-1-10 1-14s5-8 10-9c1-1 2-1 2-1h3zm59 20h-55l55 163 55-163h-55z"/>
  <path class="fil79" d="m7153 3688h117c5 0 9 2 12 5 2 2 4 5 5 8h-150c0-1 0-2 1-3 2-4 5-8 10-9 1-1 2-1 2-1h3z"/>
  <path class="fil80" d="m7145 3697h124c4 0 7 3 7 8v3l-62 172c-1 4-6 6-10 5-2-1-4-3-4-5l-62-173c-1-4 1-8 5-10h2z"/>
  <path class="fil81" d="m8287 6422c-3 6-10 8-18 7-2 0-3 0-5-2-1-1-3-1-2-4 0-2 2-8 4-9 0-2 0-3 2-3 0-2 2-3 3-4 2-3 3-6 6 0 3 2 13 9 10 15zm51-20c2-1 7 5 8 9-3-1-10-6-8-9zm332 9l2-2 1 4s-2-2-3-2zm-4-14c-1-2 0-7 2-8 1 3 1 5-2 8zm-71-13c1 1-1 4-1 6-1 3-8 20-13 13-6-4 9-19 14-19zm115 1c2 1 3 1 5 1 3-1 3-1 5 1 1 1-1 10-2 10-2-1-8-10-8-12zm-425 12c5-7 29-13 41-14 4 1 1 0 10 1 11-1 29 1 33 12 1 4 2 7 1 10 0 2-1 7-3 8-10 4-10-14-24-22-4-1-13-6-16 0-3 4-2 11 0 16 4 8 12 11 19 14 5 1 7 2 9 4s3 4 6 6c2 3 2 4 7 4 2 0 4-4 5-6 2-3 2-4 7-5 4 1 7 0 11-1 6 0 5 0 8-1 9-3 8-5 13-10 3 4 2 17 13 14 3-1 3-6 2-9-1-5 1-18 4-24 0-3 3-6 5-9 3-4 15-8 20-2 1 4-3 8-5 10-1 2-4 9-4 11-2 8-1 16 8 22 12 4 15 3 28 1 5 0 9-4 13-8 2-2 2-3 4-4 3 4 5 22 14 19 1 1 4-2 4-4 1-4 0-6-1-8-3-4-4-14-3-17-1-2-1-4 0-5 0 0-2-2-1-4 0-3 1-11 1-14 2-8 18-6 23 3 1 4 1 4-2 6 0 3-2 3-2 5-2 1-1 1-3 6-5 5-9 9-8 18 0 0 3 4 2 5 11 11 37 4 50 0 2-1 10-6 11-6 1 4 0 8 4 13 2 4 4 6 8 8 5 6 18 6 27 5 5-2 14-4 18-8 2 1 2-1 4-2 4-3 17-14 18-14 2 0 3 2 6 4 3 1 6 3 7 4 3 1 7 0 9-3 4-4-2-19-4-24-1-4-2-7-1-10 0-2 0-7 2-8 0 0 10-1 11-1 3 1 5 3 5 6 4 6 8 12 12 16 3 6 7 10 11 16 0 0 4 6 5 6 3 4 4 4 8 2 3-1 5-6 3-8-2-5-8-7-7-18 0-1-1-3-1-5 1-1 1-3 2-5-1-6 5-15-3-18-4-3-8-1-13-2-3 1-8 2-11-1-3-2-2-7-1-10s5-5 6-7c2-1 17-6 19-7 20-3 27-4 47-6 8 1 78 7 82 3 3-3 2-8-1-10-2-4-6-3-9-3h-59c-2 0-4 1-7 0-5-1-18 1-25 1-12 2-32 3-43 8-2 2-4 1-6 2-4 3-7 5-10 8-7 10-4 19-6 20s-8 0-10-1c-3 0-7-3-9-2 0 0-4 4-5 6-3 1-5 2-7 5-4 2-6 10-6 15v10c2 4 3 6 1 8-7 9-16 15-27 19-4 1-14 3-19 2-6-1-5 1-9-3-1-2-4-6-3-9 2-2 11-3 14-4 2 1 5 1 7 0s4-4 4-5c-1-4-5-8-10-8-3 1-13 2-15 2-1-1 4-11 5-12 2-3 7-17 6-21-2-5-7-8-12-4-2 0-6 2-6 2-10 8-13 7-20 17-3 4-4 9-5 14-1 4 5 9 6 11-1 1-6 4-8 3-3 1-5 2-9 3-3 1-18 1-19-1-4-11 25-22 6-43-5-6-13-12-22-10-4 1-10 1-12 3s-3 11-5 13c-1-2-3-8-9-4-9 3 4 19-4 34-3 4-14 8-20 7-10-1-17-6-10-14 3-6 8-15 8-21-1-2-3-8-6-10s-6-3-11-4c-12-5-20 3-28 13 0 2-3 9-3 9-3-2-6-13-11-9-7 2-4 9-6 15 1 6 0 10-6 14-2 1-14 5-17 3-1-4 3-15-2-22-3-6-9-12-14-15-19-8-54-6-72 3-4 1-6 2-10 5-7 3-6 8-16-1-4-4-28-13-30-15 1-2 10-8 12-7 4-3 8-5 10-8 6-7 13-12 18-19 9-14 20-37 1-51-15-12-45-12-64-8-69 14-73 86-49 141 2 5 9 19 13 23 5 2 11 4 9-2-1-3-4-4-7-11-18-34-30-81-9-114 10-15 27-24 46-28 15-1 49-5 60 12 8 14-10 37-20 45-7 7-14 12-22 15-4 2-11 4-13 7-3 4-2 8 4 12 1 1 16 7 19 8 5 3 15 8 19 11 3 2 2 2-1 5-4 5-6 8-10 16-3 4-1 11 0 14 1 4 8 7 11 10 3 0 15 0 17-1 10-1 18-8 18-20-1-10-13-19-13-22z"/>
  <polygon class="fil52" points="4669 6239 5456 6239 5456 6502 4669 6502" mask="url(#ba)"/>
   <polygon class="fil82" points="4800 4929 4800 5333 4669 5333 4669 4929"/>
   <polygon class="fil83" points="4931 4929 4931 5333 4800 5333 4800 4929"/>
   <polygon class="fil84" points="5062 4929 5062 5333 4931 5333 4931 4929"/>
   <polygon class="fil85" points="5194 4929 5194 5333 5062 5333 5062 4929"/>
   <polygon class="fil86" points="5325 4929 5325 5333 5194 5333 5194 4929"/>
  <rect class="fil87" x="5325" y="4929" width="131" height="405"/>
</svg>